<?xml version="1.0" encoding="UTF-8"?>
<svg version="1.1" xmlns="http://www.w3.org/2000/svg" width="500" height="500">
<path d="M0 0 C1.34003678 -0.00258647 2.68007279 -0.00560041 4.02010775 -0.0090034 C7.69225006 -0.01704374 11.36437279 -0.01886132 15.03652287 -0.01960087 C19.00128258 -0.02145664 22.96603226 -0.02900667 26.93078613 -0.03573608 C35.59639028 -0.04929952 44.26198978 -0.05534121 52.92760277 -0.05974674 C58.34318006 -0.06251291 63.75875557 -0.06675098 69.17433167 -0.07125092 C84.18156573 -0.0834417 99.18879838 -0.09374092 114.19603729 -0.09712601 C115.15595928 -0.09734557 116.11588127 -0.09756514 117.10489181 -0.09779136 C118.06705626 -0.09800964 119.02922072 -0.09822791 120.02054167 -0.09845281 C121.97011534 -0.09889627 123.91968902 -0.09934283 125.8692627 -0.09979248 C126.83630994 -0.10001391 127.80335719 -0.10023534 128.7997089 -0.10046348 C144.45754554 -0.10440866 160.11533556 -0.12185501 175.7731542 -0.145152 C191.86595669 -0.16890199 207.95873582 -0.18132954 224.05155611 -0.18249393 C233.08008648 -0.18340871 242.10855612 -0.1891113 251.1370697 -0.20731354 C258.82752152 -0.22276392 266.51789383 -0.22780604 274.20835823 -0.21957543 C278.12719073 -0.21568615 282.04586338 -0.21651353 285.9646759 -0.23063278 C289.56249638 -0.24347611 293.16003862 -0.24208416 296.75785929 -0.23004207 C298.65422223 -0.2271946 300.55059046 -0.23894136 302.4469142 -0.25146413 C330.06594022 -0.09471667 353.91087613 11.56803946 373.37121582 30.57012939 C396.46660353 54.90205773 400.51588343 83.44750219 400.40583324 115.69586086 C400.39668349 119.67141302 400.41080102 123.64689823 400.42175293 127.62243652 C400.43943814 135.38652788 400.43574313 143.15046361 400.42410237 150.91456079 C400.41502864 157.23073244 400.41386097 163.5468608 400.41819763 169.86303711 C400.41881056 170.76571977 400.4194235 171.66840242 400.420055 172.5984391 C400.42133404 174.43284433 400.4226309 176.26724956 400.42394537 178.10165477 C400.43532187 195.25901572 400.42228362 212.41629085 400.4007439 229.57363772 C400.3828756 244.26066225 400.38598053 258.94756027 400.40441895 273.63458252 C400.42587761 290.73511139 400.43422351 307.83556527 400.42196989 324.93610573 C400.42069584 326.7633527 400.41943835 328.59059968 400.41819763 330.41784668 C400.41727198 331.76602504 400.41727198 331.76602504 400.41632763 333.14143932 C400.41288968 339.44204899 400.41866931 345.74261066 400.42811584 352.04321289 C400.43939294 359.73298449 400.43617679 367.422593 400.41499287 375.11234617 C400.40455862 379.02760753 400.40022833 382.94259806 400.41358948 386.85785675 C400.52062598 421.16154686 394.17551671 447.79298037 369.88293457 473.14044189 C352.1699671 490.77626746 327.32272806 500.37360659 302.48421097 500.54167211 C301.26968624 500.53497995 300.05516151 500.52828778 298.80383301 500.52139282 C297.45688882 500.52486095 296.10994748 500.52963318 294.76301193 500.53557456 C291.10886888 500.54795589 287.45496457 500.54197386 283.8008213 500.5326159 C279.84164538 500.52577221 275.88250789 500.53633275 271.92333984 500.54455566 C264.18593455 500.55783894 256.44861696 500.5550395 248.71120834 500.54631774 C242.4183048 500.5395202 236.1254257 500.53863339 229.83251953 500.54188919 C228.93411496 500.54234889 228.03571039 500.54280859 227.11008143 500.54328222 C225.28452841 500.54424147 223.45897539 500.54521411 221.63342237 500.54619999 C204.54771404 500.55473805 187.46205413 500.54494468 170.37635374 500.52879889 C155.74180437 500.51539716 141.10732641 500.5177257 126.47277832 500.53155518 C109.44482372 500.54763905 92.41691148 500.55391423 75.38895035 500.54471838 C73.57041677 500.54376282 71.7518832 500.5428197 69.93334961 500.54188919 C69.03878516 500.54142636 68.14422071 500.54096354 67.22254825 500.54048669 C60.9431142 500.53790521 54.6637072 500.54224955 48.38427734 500.54932785 C40.72328582 500.55777432 33.06238641 500.55539695 25.40140533 500.53948562 C21.49872778 500.53164501 17.59620336 500.52843865 13.69352722 500.53843307 C10.11081568 500.54746879 6.52839712 500.54230376 2.94571161 500.52650042 C1.05769328 500.52163912 -0.8303459 500.53126904 -2.71834183 500.54167211 C-30.32478379 500.3548779 -54.15176805 488.70624248 -73.60534668 469.71075439 C-91.59642437 450.75642384 -100.45700525 426.34716305 -100.37776184 400.45970154 C-100.38078852 399.10724897 -100.38468057 397.75479812 -100.38935441 396.40235025 C-100.39957678 392.71448552 -100.39746741 389.02671863 -100.39317381 385.33884609 C-100.39069604 381.35031216 -100.39973377 377.36180116 -100.4072113 373.37327576 C-100.41993138 365.57017116 -100.42175535 357.76710101 -100.41941104 349.96398779 C-100.41762464 343.61806574 -100.41938441 337.2721541 -100.42363548 330.92623329 C-100.42423067 330.02144731 -100.42482586 329.11666134 -100.42543909 328.1844576 C-100.4266509 326.34609871 -100.42786503 324.50773983 -100.42908146 322.66938094 C-100.43994671 305.44638802 -100.43779937 288.22341469 -100.43169662 271.00042067 C-100.42652881 255.26456126 -100.43778112 239.52876378 -100.45679484 223.79291662 C-100.4761944 207.61297737 -100.48442549 191.43306738 -100.48067158 175.25311643 C-100.4787627 166.17829272 -100.48121655 157.1035217 -100.49538612 148.0287075 C-100.50732795 140.30281853 -100.50867352 132.57701469 -100.49659596 124.85112449 C-100.49072678 120.91416527 -100.4895531 116.97736156 -100.50159836 113.0404129 C-100.51252353 109.42737785 -100.50927606 105.81462689 -100.49533667 102.20160476 C-100.49147482 100.29475693 -100.5021824 98.38789616 -100.51363355 96.4810788 C-100.33971678 68.39863533 -87.65004625 45.30325056 -68.65612793 25.58575439 C-50.09352843 7.76319208 -25.25353721 -0.01767754 0 0 Z " fill="#4100F4" transform="translate(100.1170654296875,-0.14044189453125)"/>
<path d="M0 0 C28.05 0 56.1 0 85 0 C85 5.61 85 11.22 85 17 C90.61 17 96.22 17 102 17 C102 22.61 102 28.22 102 34 C107.61 34 113.22 34 119 34 C119 45.22 119 56.44 119 68 C124.61 68 130.22 68 136 68 C136 84.5 136 101 136 118 C141.28 118 146.56 118 152 118 C152 112.39 152 106.78 152 101 C157.61 101 163.22 101 169 101 C169 95.39 169 89.78 169 84 C174.61 84 180.22 84 186 84 C185.96042843 78.77936725 185.96042843 78.77936725 185.90991211 73.55883789 C185.90276055 71.70566241 185.9497148 69.85250692 186 68 C187 67 187 67 190.59765625 66.90234375 C192.08597255 66.90808728 193.57426296 66.92110109 195.0625 66.9375 C197.681875 66.958125 200.30125 66.97875 203 67 C203 61.39 203 55.78 203 50 C214.55 50 226.1 50 238 50 C238 44.72 238 39.44 238 34 C254.17 34 270.34 34 287 34 C287 39.28 287 44.56 287 50 C276.11 50 265.22 50 254 50 C254 61.22 254 72.44 254 84 C248.39 84 242.78 84 237 84 C237 95.22 237 106.44 237 118 C231.39 118 225.78 118 220 118 C220 129.22 220 140.44 220 152 C214.39 152 208.78 152 203 152 C203 163.22 203 174.44 203 186 C197.39 186 191.78 186 186 186 C186 208.44 186 230.88 186 254 C191.94 254 197.88 254 204 254 C204 259.28 204 264.56 204 270 C220.5 270 237 270 254 270 C254 264.39 254 258.78 254 253 C259.61 253 265.22 253 271 253 C271 236.5 271 220 271 203 C276.61 203 282.22 203 288 203 C288 219.83 288 236.66 288 254 C282.39 254 276.78 254 271 254 C271 259.94 271 265.88 271 272 C265.72 272 260.44 272 255 272 C255 277.61 255 283.22 255 289 C232.23 289 209.46 289 186 289 C186 283.06 186 277.12 186 271 C180.45026879 271.03957481 180.45026879 271.03957481 174.90063477 271.09008789 C172.93354026 271.09723091 170.96646379 271.05031893 169 271 C168 270 168 270 167.90234375 266.62109375 C167.90808576 265.22652508 167.92109772 263.83198403 167.9375 262.4375 C167.958125 259.983125 167.97875 257.52875 168 255 C163.05 255 158.1 255 153 255 C153 232.23 153 209.46 153 186 C158.61 186 164.22 186 170 186 C170 169.5 170 153 170 136 C175.61 136 181.22 136 187 136 C187 130.06 187 124.12 187 118 C192.28 118 197.56 118 203 118 C203 107.11 203 96.22 203 85 C197.72 85 192.44 85 187 85 C187.03957157 90.22063275 187.03957157 90.22063275 187.09008789 95.44116211 C187.09723945 97.29433759 187.0502852 99.14749308 187 101 C186 102 186 102 182.40234375 102.09765625 C180.91402745 102.09191272 179.42573704 102.07889891 177.9375 102.0625 C175.318125 102.041875 172.69875 102.02125 170 102 C170 107.28 170 112.56 170 118 C164.39 118 158.78 118 153 118 C153 129.22 153 140.44 153 152 C147.06 152 141.12 152 135 152 C135 157.61 135 163.22 135 169 C129.72 169 124.44 169 119 169 C119 180.22 119 191.44 119 203 C113.39 203 107.78 203 102 203 C102 158.45 102 113.9 102 68 C96.72 68 91.44 68 86 68 C86 79.22 86 90.44 86 102 C80.39 102 74.78 102 69 102 C69 113.22 69 124.44 69 136 C63.39 136 57.78 136 52 136 C52.00523682 137.50941162 52.01047363 139.01882324 52.01586914 140.57397461 C52.03391205 146.1517681 52.0454294 151.729559 52.05493164 157.30737305 C52.05997349 159.72567172 52.06680678 162.14396733 52.07543945 164.56225586 C52.08751157 168.02979283 52.09322963 171.49728966 52.09765625 174.96484375 C52.10281754 176.05337143 52.10797882 177.14189911 52.11329651 178.26341248 C52.11337204 179.26437454 52.11344757 180.26533661 52.11352539 181.29663086 C52.115746 182.18265488 52.11796661 183.06867889 52.12025452 183.98155212 C52 186 52 186 51 187 C48.30345146 187.07319621 45.63308542 187.09242537 42.9375 187.0625 C42.17888672 187.05798828 41.42027344 187.05347656 40.63867188 187.04882812 C38.75908129 187.0370068 36.87953101 187.01907078 35 187 C35.00523682 187.99443115 35.01047363 188.9888623 35.01586914 190.01342773 C35.03392041 193.69033921 35.04543246 197.36724675 35.05493164 201.04418945 C35.05997157 202.63794614 35.0668035 204.23169819 35.07543945 205.82543945 C35.08751999 208.11150253 35.09323155 210.39750467 35.09765625 212.68359375 C35.10281754 213.40026718 35.10797882 214.11694061 35.11329651 214.85533142 C35.11349263 216.57063672 35.06192007 218.28581266 35 220 C34 221 34 221 30.62109375 221.09765625 C29.22652508 221.09191424 27.83198403 221.07890228 26.4375 221.0625 C23.983125 221.041875 21.52875 221.02125 19 221 C19 226.28 19 231.56 19 237 C13.06 237 7.12 237 1 237 C1 242.61 1 248.22 1 254 C-4.28 254 -9.56 254 -15 254 C-15 259.61 -15 265.22 -15 271 C-26.22 271 -37.44 271 -49 271 C-49 276.61 -49 282.22 -49 288 C-57.84882724 288.02255318 -66.69763552 288.04091634 -75.54648495 288.05181217 C-79.65494285 288.05704046 -83.76338014 288.06413713 -87.87182617 288.07543945 C-91.83346828 288.08627025 -95.79509052 288.09227724 -99.75674629 288.09487724 C-101.27148311 288.09673114 -102.78621879 288.1003511 -104.30094719 288.10573006 C-106.41541813 288.11294307 -108.52980594 288.11399083 -110.64428711 288.11352539 C-112.45297523 288.11685631 -112.45297523 288.11685631 -114.29820251 288.12025452 C-117 288 -117 288 -118 287 C-118.07325436 284.3013095 -118.09222351 281.63497444 -118.0625 278.9375 C-118.041875 276.318125 -118.02125 273.69875 -118 271 C-123.61 271 -129.22 271 -135 271 C-135 265.39 -135 259.78 -135 254 C-140.61 254 -146.22 254 -152 254 C-152 220.34 -152 186.68 -152 152 C-146.39 152 -140.78 152 -135 152 C-135 146.39 -135 140.78 -135 135 C-129.39 135 -123.78 135 -118 135 C-118 129.39 -118 123.78 -118 118 C-112.39 118 -106.78 118 -101 118 C-101.03957157 112.77936725 -101.03957157 112.77936725 -101.09008789 107.55883789 C-101.09723945 105.70566241 -101.0502852 103.85250692 -101 102 C-100 101 -100 101 -96.85717773 100.88647461 C-95.46597304 100.88672559 -94.07476209 100.89228291 -92.68359375 100.90234375 C-92.03588013 100.90335083 -91.3881665 100.90435791 -90.7208252 100.90539551 C-88.29303221 100.91064157 -85.86526439 100.92460275 -83.4375 100.9375 C-75.3009375 100.9684375 -75.3009375 100.9684375 -67 101 C-67 84.17 -67 67.34 -67 50 C-61.72 50 -56.44 50 -51 50 C-51.03957157 44.77936725 -51.03957157 44.77936725 -51.09008789 39.55883789 C-51.09723945 37.70566241 -51.0502852 35.85250692 -51 34 C-50 33 -50 33 -46.40234375 32.90234375 C-44.91402745 32.90808728 -43.42573704 32.92110109 -41.9375 32.9375 C-39.318125 32.958125 -36.69875 32.97875 -34 33 C-34 27.39 -34 21.78 -34 16 C-22.78 16 -11.56 16 0 16 C0 10.72 0 5.44 0 0 Z " fill="#9488AF" transform="translate(185,104)"/>
<path d="M0 0 C28.05 0 56.1 0 85 0 C85 5.61 85 11.22 85 17 C90.61 17 96.22 17 102 17 C102 22.61 102 28.22 102 34 C107.61 34 113.22 34 119 34 C119 45.22 119 56.44 119 68 C124.61 68 130.22 68 136 68 C136 84.5 136 101 136 118 C141.28 118 146.56 118 152 118 C152 112.39 152 106.78 152 101 C157.61 101 163.22 101 169 101 C169 95.39 169 89.78 169 84 C174.61 84 180.22 84 186 84 C185.96042843 78.77936725 185.96042843 78.77936725 185.90991211 73.55883789 C185.90276055 71.70566241 185.9497148 69.85250692 186 68 C187 67 187 67 190.59765625 66.90234375 C192.08597255 66.90808728 193.57426296 66.92110109 195.0625 66.9375 C197.681875 66.958125 200.30125 66.97875 203 67 C203 61.39 203 55.78 203 50 C214.55 50 226.1 50 238 50 C238 44.72 238 39.44 238 34 C254.17 34 270.34 34 287 34 C287 39.28 287 44.56 287 50 C276.11 50 265.22 50 254 50 C254 61.22 254 72.44 254 84 C248.39 84 242.78 84 237 84 C237 95.22 237 106.44 237 118 C231.39 118 225.78 118 220 118 C220 129.22 220 140.44 220 152 C214.39 152 208.78 152 203 152 C203 163.22 203 174.44 203 186 C197.39 186 191.78 186 186 186 C186 208.44 186 230.88 186 254 C191.94 254 197.88 254 204 254 C204 259.28 204 264.56 204 270 C220.5 270 237 270 254 270 C254 264.39 254 258.78 254 253 C259.61 253 265.22 253 271 253 C271 236.5 271 220 271 203 C276.61 203 282.22 203 288 203 C288 219.83 288 236.66 288 254 C282.39 254 276.78 254 271 254 C271 259.94 271 265.88 271 272 C265.72 272 260.44 272 255 272 C255 277.61 255 283.22 255 289 C232.23 289 209.46 289 186 289 C186 283.06 186 277.12 186 271 C180.45026879 271.03957481 180.45026879 271.03957481 174.90063477 271.09008789 C172.93354026 271.09723091 170.96646379 271.05031893 169 271 C168 270 168 270 167.90234375 266.62109375 C167.90808576 265.22652508 167.92109772 263.83198403 167.9375 262.4375 C167.958125 259.983125 167.97875 257.52875 168 255 C163.05 255 158.1 255 153 255 C153 232.23 153 209.46 153 186 C158.61 186 164.22 186 170 186 C170 169.5 170 153 170 136 C175.61 136 181.22 136 187 136 C187 130.06 187 124.12 187 118 C192.28 118 197.56 118 203 118 C203 107.11 203 96.22 203 85 C197.72 85 192.44 85 187 85 C187.03957157 90.22063275 187.03957157 90.22063275 187.09008789 95.44116211 C187.09723945 97.29433759 187.0502852 99.14749308 187 101 C186 102 186 102 182.40234375 102.09765625 C180.91402745 102.09191272 179.42573704 102.07889891 177.9375 102.0625 C175.318125 102.041875 172.69875 102.02125 170 102 C170 107.28 170 112.56 170 118 C164.39 118 158.78 118 153 118 C153 129.22 153 140.44 153 152 C147.06 152 141.12 152 135 152 C135 157.61 135 163.22 135 169 C129.72 169 124.44 169 119 169 C119 180.22 119 191.44 119 203 C113.39 203 107.78 203 102 203 C102 158.45 102 113.9 102 68 C96.72 68 91.44 68 86 68 C86 79.22 86 90.44 86 102 C80.39 102 74.78 102 69 102 C69 113.22 69 124.44 69 136 C63.39 136 57.78 136 52 136 C52 152.5 52 169 52 186 C46.39 186 40.78 186 35 186 C34.67 180.72 34.34 175.44 34 170 C28.72 169.67 23.44 169.34 18 169 C18 152.17 18 135.34 18 118 C23.61 118 29.22 118 35 118 C35 123.61 35 129.22 35 135 C40.28 135 45.56 135 51 135 C50.98839844 132.62941406 50.97679687 130.25882813 50.96484375 127.81640625 C50.95705304 125.52954238 50.95097636 123.24267996 50.94506836 120.95581055 C50.94002843 119.36205386 50.9331965 117.76830181 50.92456055 116.17456055 C50.91248001 113.88849747 50.90676845 111.60249533 50.90234375 109.31640625 C50.89718246 108.59973282 50.89202118 107.88305939 50.88670349 107.14466858 C50.88650737 105.42936328 50.93807993 103.71418734 51 102 C52 101 52 101 55.59765625 100.90234375 C57.08596867 100.9090178 58.57426432 100.92097817 60.0625 100.9375 C60.82111328 100.94201172 61.57972656 100.94652344 62.36132812 100.95117188 C64.24091871 100.9629932 66.12046899 100.98092922 68 101 C67.99476318 100.00556885 67.98952637 99.0111377 67.98413086 97.98657227 C67.96607959 94.30966079 67.95456754 90.63275325 67.94506836 86.95581055 C67.94002843 85.36205386 67.9331965 83.76830181 67.92456055 82.17456055 C67.91248001 79.88849747 67.90676845 77.60249533 67.90234375 75.31640625 C67.89718246 74.59973282 67.89202118 73.88305939 67.88670349 73.14466858 C67.88650737 71.42936328 67.93807993 69.71418734 68 68 C68.33 67.67 68.66 67.34 69 67 C74.28 67 79.56 67 85 67 C85 56.11 85 45.22 85 34 C79.39 34 73.78 34 68 34 C68 28.39 68 22.78 68 17 C45.89 17 23.78 17 1 17 C1 22.61 1 28.22 1 34 C-15.335 34.495 -15.335 34.495 -32 35 C-32.33 39.95 -32.66 44.9 -33 50 C-38.61 50 -44.22 50 -50 50 C-50 44.39 -50 38.78 -50 33 C-44.72 33 -39.44 33 -34 33 C-34 27.39 -34 21.78 -34 16 C-22.78 16 -11.56 16 0 16 C0 10.72 0 5.44 0 0 Z " fill="#D3F17A" transform="translate(185,104)"/>
<path d="M0 0 C16.17 0 32.34 0 49 0 C49.495 7.92 49.495 7.92 50 16 C66.83 16.33 83.66 16.66 101 17 C101 11.39 101 5.78 101 0 C106.28 0 111.56 0 117 0 C117 16.5 117 33 117 50 C111.39 50 105.78 50 100 50 C100 60.89 100 71.78 100 83 C94.72 83 89.44 83 84 83 C84 88.94 84 94.88 84 101 C72.45 101 60.9 101 49 101 C49 106.28 49 111.56 49 117 C38.77 117 28.54 117 18 117 C17.67 111.72 17.34 106.44 17 101 C11.39 100.67 5.78 100.34 0 100 C0 83.83 0 67.66 0 51 C7.92 50.505 7.92 50.505 16 50 C16.33 44.72 16.66 39.44 17 34 C22.28 34 27.56 34 33 34 C33 28.06 33 22.12 33 16 C27.39 16 21.78 16 16 16 C16 21.61 16 27.22 16 33 C8.08 33.495 8.08 33.495 0 34 C-0.33 39.28 -0.66 44.56 -1 50 C-6.61 50 -12.22 50 -18 50 C-17.67 66.83 -17.34 83.66 -17 101 C-11.72 101.33 -6.44 101.66 -1 102 C-1 107.28 -1 112.56 -1 118 C4.61 118 10.22 118 16 118 C16 123.61 16 129.22 16 135 C27.22 135 38.44 135 50 135 C50 140.28 50 145.56 50 151 C27.89 151 5.78 151 -17 151 C-17 145.72 -17 140.44 -17 135 C-22.61 135 -28.22 135 -34 135 C-34 101.67 -34 68.34 -34 34 C-28.39 34 -22.78 34 -17 34 C-17 28.39 -17 22.78 -17 17 C-11.39 17 -5.78 17 0 17 C0 11.39 0 5.78 0 0 Z " fill="#4101F4" transform="translate(85,223)"/>
<path d="M0 0 C16.17 0 32.34 0 49 0 C49 5.28 49 10.56 49 16 C38.11 16 27.22 16 16 16 C16 27.22 16 38.44 16 50 C10.39 50 4.78 50 -1 50 C-1 61.22 -1 72.44 -1 84 C-6.61 84 -12.22 84 -18 84 C-18 95.22 -18 106.44 -18 118 C-23.61 118 -29.22 118 -35 118 C-35 129.22 -35 140.44 -35 152 C-40.61 152 -46.22 152 -52 152 C-52 174.44 -52 196.88 -52 220 C-46.06 220 -40.12 220 -34 220 C-34 225.28 -34 230.56 -34 236 C-17.5 236 -1 236 16 236 C16 230.39 16 224.78 16 219 C21.61 219 27.22 219 33 219 C33 202.5 33 186 33 169 C38.61 169 44.22 169 50 169 C50 185.83 50 202.66 50 220 C44.39 220 38.78 220 33 220 C33 225.94 33 231.88 33 238 C27.72 238 22.44 238 17 238 C17 243.61 17 249.22 17 255 C-5.77 255 -28.54 255 -52 255 C-52 249.06 -52 243.12 -52 237 C-57.54973121 237.03957481 -57.54973121 237.03957481 -63.09936523 237.09008789 C-65.06645974 237.09723091 -67.03353621 237.05031893 -69 237 C-70 236 -70 236 -70.09765625 232.62109375 C-70.09191424 231.22652508 -70.07890228 229.83198403 -70.0625 228.4375 C-70.0315625 224.7559375 -70.0315625 224.7559375 -70 221 C-74.95 221 -79.9 221 -85 221 C-85 198.23 -85 175.46 -85 152 C-79.39 152 -73.78 152 -68 152 C-68 135.5 -68 119 -68 102 C-62.39 102 -56.78 102 -51 102 C-51 96.06 -51 90.12 -51 84 C-45.39 84 -39.78 84 -34 84 C-34 73.11 -34 62.22 -34 51 C-28.39 51 -22.78 51 -17 51 C-17 45.39 -17 39.78 -17 34 C-22.61 34 -28.22 34 -34 34 C-34 28.39 -34 22.78 -34 17 C-23.11 16.67 -12.22 16.34 -1 16 C-0.67 10.72 -0.34 5.44 0 0 Z " fill="#D3F17A" transform="translate(423,138)"/>
<path d="M0 0 C22.11 0 44.22 0 67 0 C67 5.61 67 11.22 67 17 C72.61 17 78.22 17 84 17 C84 27.89 84 38.78 84 50 C76.08 50.495 76.08 50.495 68 51 C67.67 61.89 67.34 72.78 67 84 C59.08 84.495 59.08 84.495 51 85 C50.67 95.89 50.34 106.78 50 118 C44.72 118 39.44 118 34 118 C34 112.39 34 106.78 34 101 C28.72 101 23.44 101 18 101 C18 95.72 18 90.44 18 85 C22.95 85 27.9 85 33 85 C33 73.78 33 62.56 33 51 C27.39 51 21.78 51 16 51 C16 61.89 16 72.78 16 84 C10.72 84 5.44 84 0 84 C0 78.72 0 73.44 0 68 C-16.5 68 -33 68 -50 68 C-50 57.11 -50 46.22 -50 35 C-44.39 35 -38.78 35 -33 35 C-33 29.06 -33 23.12 -33 17 C-22.11 17 -11.22 17 0 17 C0 11.39 0 5.78 0 0 Z " fill="#4202F3" transform="translate(186,121)"/>
<path d="M0 0 C5.61 0 11.22 0 17 0 C17 5.94 17 11.88 17 18 C11.72 18 6.44 18 1 18 C1.03957157 23.22063275 1.03957157 23.22063275 1.09008789 28.44116211 C1.09723945 30.29433759 1.0502852 32.14749308 1 34 C0.67 34.33 0.34 34.66 0 35 C-5.28 35 -10.56 35 -16 35 C-16 51.17 -16 67.34 -16 84 C-10.39 84 -4.78 84 1 84 C2 85 2 85 2.09765625 88.59765625 C2.09191272 90.08597255 2.07889891 91.57426296 2.0625 93.0625 C2.041875 95.681875 2.02125 98.30125 2 101 C12.23 101 22.46 101 33 101 C33 95.72 33 90.44 33 85 C44.55 85 56.1 85 68 85 C68 90.61 68 96.22 68 102 C73.61 102 79.22 102 85 102 C85 107.61 85 113.22 85 119 C79.72 119 74.44 119 69 119 C69 124.61 69 130.22 69 136 C57.78 136 46.56 136 35 136 C35 141.61 35 147.22 35 153 C26.15117276 153.02255318 17.30236448 153.04091634 8.45351505 153.05181217 C4.34505715 153.05704046 0.23661986 153.06413713 -3.87182617 153.07543945 C-7.83346828 153.08627025 -11.79509052 153.09227724 -15.75674629 153.09487724 C-17.27148311 153.09673114 -18.78621879 153.1003511 -20.30094719 153.10573006 C-22.41541813 153.11294307 -24.52980594 153.11399083 -26.64428711 153.11352539 C-28.45297523 153.11685631 -28.45297523 153.11685631 -30.29820251 153.12025452 C-33 153 -33 153 -34 152 C-34.07325436 149.3013095 -34.09222351 146.63497444 -34.0625 143.9375 C-34.041875 141.318125 -34.02125 138.69875 -34 136 C-39.61 136 -45.22 136 -51 136 C-51 130.39 -51 124.78 -51 119 C-55.95 119 -60.9 119 -66 119 C-66 85.67 -66 52.34 -66 18 C-61.05 18 -56.1 18 -51 18 C-50.15687068 30.37270392 -49.86501175 42.63730744 -49.90234375 55.03515625 C-49.90421485 56.89415956 -49.90563547 58.75316337 -49.90663147 60.61216736 C-49.91040228 65.44362818 -49.92018433 70.27505768 -49.93133545 75.10650635 C-49.94166824 80.0612343 -49.9461542 85.01596744 -49.95117188 89.97070312 C-49.96181297 99.64715121 -49.97936389 109.32356807 -50 119 C-44.39 119 -38.78 119 -33 119 C-33 124.28 -33 129.56 -33 135 C-10.89 135 11.22 135 34 135 C34 129.72 34 124.44 34 119 C22.78 119 11.56 119 0 119 C0 113.39 0 107.78 0 102 C-5.61 102 -11.22 102 -17 102 C-17 96.72 -17 91.44 -17 86 C-22.22063275 86.03957157 -22.22063275 86.03957157 -27.44116211 86.09008789 C-29.29433759 86.09723945 -31.14749308 86.0502852 -33 86 C-34 85 -34 85 -34.12025452 82.94358826 C-34.11803391 82.03979935 -34.11581329 81.13601044 -34.11352539 80.20483398 C-34.11344986 79.18385117 -34.11337433 78.16286835 -34.11329651 77.11094666 C-34.10813522 76.0005452 -34.10297394 74.89014374 -34.09765625 73.74609375 C-34.0962413 72.61551041 -34.09482635 71.48492706 -34.09336853 70.32008362 C-34.08775019 66.69252935 -34.07519458 63.06503576 -34.0625 59.4375 C-34.05748736 56.98502693 -34.05292405 54.5325529 -34.04882812 52.08007812 C-34.0377748 46.05336187 -34.02049788 40.02669124 -34 34 C-28.39 34 -22.78 34 -17 34 C-17.03957157 28.77936725 -17.03957157 28.77936725 -17.09008789 23.55883789 C-17.09723945 21.70566241 -17.0502852 19.85250692 -17 18 C-16 17 -16 17 -12.40234375 16.90234375 C-10.91402745 16.90808728 -9.42573704 16.92110109 -7.9375 16.9375 C-5.318125 16.958125 -2.69875 16.97875 0 17 C0 11.39 0 5.78 0 0 Z " fill="#9E9AA7" transform="translate(101,239)"/>
<path d="M0 0 C5.61 0 11.22 0 17 0 C17 16.83 17 33.66 17 51 C22.28 51 27.56 51 33 51 C34 52 34 52 34.09765625 55.59765625 C34.09191272 57.08597255 34.07889891 58.57426296 34.0625 60.0625 C34.041875 62.681875 34.02125 65.30125 34 68 C39.28 68 44.56 68 50 68 C50 68.33 50 68.66 50 69 C44.72 69 39.44 69 34 69 C34.01160156 71.37058594 34.02320313 73.74117188 34.03515625 76.18359375 C34.04294696 78.47045762 34.04902364 80.75732004 34.05493164 83.04418945 C34.05997157 84.63794614 34.0668035 86.23169819 34.07543945 87.82543945 C34.08751999 90.11150253 34.09323155 92.39750467 34.09765625 94.68359375 C34.10281754 95.40026718 34.10797882 96.11694061 34.11329651 96.85533142 C34.11349263 98.57063672 34.06192007 100.28581266 34 102 C33 103 33 103 29.62109375 103.09765625 C28.22652508 103.09191424 26.83198403 103.07890228 25.4375 103.0625 C22.983125 103.041875 20.52875 103.02125 18 103 C18 108.28 18 113.56 18 119 C6.45 119 -5.1 119 -17 119 C-17 107.45 -17 95.9 -17 84 C-11.72 84 -6.44 84 -1 84 C-1 73.11 -1 62.22 -1 51 C4.61 51 10.22 51 16 51 C16 34.5 16 18 16 1 C10.72 1 5.44 1 0 1 C0 0.67 0 0.34 0 0 Z " fill="#8A79B7" transform="translate(186,222)"/>
<path d="M0 0 C5.28 0 10.56 0 16 0 C16.33 10.89 16.66 21.78 17 33 C41.75 33.495 41.75 33.495 67 34 C67 39.28 67 44.56 67 50 C50.5 50.33 34 50.66 17 51 C16.67 56.28 16.34 61.56 16 67 C-0.5 67 -17 67 -34 67 C-34 62.05 -34 57.1 -34 52 C-22.78 52 -11.56 52 0 52 C0 34.84 0 17.68 0 0 Z " fill="#D3F17A" transform="translate(119,155)"/>
<path d="M0 0 C5.28 0 10.56 0 16 0 C16 5.94 16 11.88 16 18 C21.61 18 27.22 18 33 18 C33 34.5 33 51 33 68 C27.72 68 22.44 68 17 68 C16.67 62.72 16.34 57.44 16 52 C10.72 51.67 5.44 51.34 0 51 C0 34.17 0 17.34 0 0 Z " fill="#D2F07A" transform="translate(203,222)"/>
<path d="M0 0 C4.95 0 9.9 0 15 0 C15 33 15 66 15 100 C10.05 100 5.1 100 0 100 C0 67 0 34 0 0 Z " fill="#D4F379" transform="translate(35,257)"/>
<path d="M0 0 C5.61 0 11.22 0 17 0 C17 16.83 17 33.66 17 51 C11.39 51 5.78 51 0 51 C0 56.94 0 62.88 0 69 C-5.28 69 -10.56 69 -16 69 C-16 74.61 -16 80.22 -16 86 C-38.77 86 -61.54 86 -85 86 C-85 80.06 -85 74.12 -85 68 C-90.54973121 68.03957481 -90.54973121 68.03957481 -96.09936523 68.09008789 C-98.06645974 68.09723091 -100.03353621 68.05031893 -102 68 C-103 67 -103 67 -103.09765625 63.62109375 C-103.09191424 62.22652508 -103.07890228 60.83198403 -103.0625 59.4375 C-103.0315625 55.7559375 -103.0315625 55.7559375 -103 52 C-107.95 52 -112.9 52 -118 52 C-118 51.67 -118 51.34 -118 51 C-112.39 51 -106.78 51 -101 51 C-101 56.28 -101 61.56 -101 67 C-95.39 67 -89.78 67 -84 67 C-84 72.61 -84 78.22 -84 84 C-61.89 84 -39.78 84 -17 84 C-17 78.72 -17 73.44 -17 68 C-33.83 68 -50.66 68 -68 68 C-68 62.39 -68 56.78 -68 51 C-67.67 51 -67.34 51 -67 51 C-67 56.28 -67 61.56 -67 67 C-50.5 67 -34 67 -17 67 C-17 61.39 -17 55.78 -17 50 C-11.39 50 -5.78 50 0 50 C0 33.5 0 17 0 0 Z " fill="#D2F07A" transform="translate(456,307)"/>
<path d="M0 0 C0.33 0 0.66 0 1 0 C1 22.44 1 44.88 1 68 C-4.61 68 -10.22 68 -16 68 C-16 79.22 -16 90.44 -16 102 C-21.61 102 -27.22 102 -33 102 C-33 118.5 -33 135 -33 152 C-33.33 152 -33.66 152 -34 152 C-34 135.5 -34 119 -34 102 C-39.61 102 -45.22 102 -51 102 C-51 96.06 -51 90.12 -51 84 C-50.67 84 -50.34 84 -50 84 C-50 89.61 -50 95.22 -50 101 C-44.72 101 -39.44 101 -34 101 C-34.01160156 98.62941406 -34.02320313 96.25882812 -34.03515625 93.81640625 C-34.04294696 91.52954238 -34.04902364 89.24267996 -34.05493164 86.95581055 C-34.05997157 85.36205386 -34.0668035 83.76830181 -34.07543945 82.17456055 C-34.08751999 79.88849747 -34.09323155 77.60249533 -34.09765625 75.31640625 C-34.10281754 74.59973282 -34.10797882 73.88305939 -34.11329651 73.14466858 C-34.11349263 71.42936328 -34.06192007 69.71418734 -34 68 C-33 67 -33 67 -29.40234375 66.90234375 C-27.91403133 66.9090178 -26.42573568 66.92097817 -24.9375 66.9375 C-24.17888672 66.94201172 -23.42027344 66.94652344 -22.63867188 66.95117188 C-20.75908129 66.9629932 -18.87953101 66.98092922 -17 67 C-17.00523682 66.00556885 -17.01047363 65.0111377 -17.01586914 63.98657227 C-17.03392041 60.30966079 -17.04543246 56.63275325 -17.05493164 52.95581055 C-17.05997157 51.36205386 -17.0668035 49.76830181 -17.07543945 48.17456055 C-17.08751999 45.88849747 -17.09323155 43.60249533 -17.09765625 41.31640625 C-17.10281754 40.59973282 -17.10797882 39.88305939 -17.11329651 39.14466858 C-17.11349263 37.42936328 -17.06192007 35.71418734 -17 34 C-16.67 33.67 -16.34 33.34 -16 33 C-10.72 33 -5.44 33 0 33 C0 22.11 0 11.22 0 0 Z " fill="#D2EF7B" transform="translate(270,138)"/>
<path d="M0 0 C11.22 0 22.44 0 34 0 C34 0.33 34 0.66 34 1 C23.11 1 12.22 1 1 1 C1 6.61 1 12.22 1 18 C6.61 18 12.22 18 18 18 C18 23.61 18 29.22 18 35 C12.39 35 6.78 35 1 35 C1 45.89 1 56.78 1 68 C0.67 68 0.34 68 0 68 C0 57.11 0 46.22 0 35 C-5.28 35 -10.56 35 -16 35 C-15.96042843 40.22063275 -15.96042843 40.22063275 -15.90991211 45.44116211 C-15.90276055 47.29433759 -15.9497148 49.14749308 -16 51 C-17 52 -17 52 -20.59765625 52.09765625 C-22.08597255 52.09191272 -23.57426296 52.07889891 -25.0625 52.0625 C-27.681875 52.041875 -30.30125 52.02125 -33 52 C-33 57.28 -33 62.56 -33 68 C-38.94 68 -44.88 68 -51 68 C-51 62.39 -51 56.78 -51 51 C-45.39 51 -39.78 51 -34 51 C-34 45.39 -34 39.78 -34 34 C-28.39 34 -22.78 34 -17 34 C-17.03957157 28.77936725 -17.03957157 28.77936725 -17.09008789 23.55883789 C-17.09723945 21.70566241 -17.0502852 19.85250692 -17 18 C-16 17 -16 17 -12.40234375 16.90234375 C-10.91402745 16.90808728 -9.42573704 16.92110109 -7.9375 16.9375 C-5.318125 16.958125 -2.69875 16.97875 0 17 C0 11.39 0 5.78 0 0 Z " fill="#8B7BB6" transform="translate(388,154)"/>
<path d="M0 0 C16.83 0 33.66 0 51 0 C51 5.61 51 11.22 51 17 C34.5 17 18 17 1 17 C1 22.94 1 28.88 1 35 C-4.94 35 -10.88 35 -17 35 C-17 28.73 -17 22.46 -17 16 C-11.39 16 -5.78 16 0 16 C0 10.72 0 5.44 0 0 Z " fill="#D3F279" transform="translate(405,290)"/>
<path d="M0 0 C0.33 0 0.66 0 1 0 C1 5.28 1 10.56 1 16 C6.61 16 12.22 16 18 16 C18 11.05 18 6.1 18 1 C18.33 1 18.66 1 19 1 C19 6.61 19 12.22 19 18 C13.39 18 7.78 18 2 18 C2 28.56 2 39.12 2 50 C1.67 50 1.34 50 1 50 C1 39.11 1 28.22 1 17 C-4.28 17 -9.56 17 -15 17 C-15 34.16 -15 51.32 -15 69 C-26.22 69 -37.44 69 -49 69 C-49 73.95 -49 78.9 -49 84 C-32.5 84 -16 84 1 84 C1 89.61 1 95.22 1 101 C0.67 101 0.34 101 0 101 C0 95.72 0 90.44 0 85 C-16.17 85 -32.34 85 -49 85 C-49 90.61 -49 96.22 -49 102 C-54.61 102 -60.22 102 -66 102 C-66 107.61 -66 113.22 -66 119 C-71.61 119 -77.22 119 -83 119 C-83 124.61 -83 130.22 -83 136 C-83.33 136 -83.66 136 -84 136 C-84 130.39 -84 124.78 -84 119 C-88.95 119 -93.9 119 -99 119 C-99 152.33 -99 185.66 -99 220 C-99.66 220 -100.32 220 -101 220 C-101 186.34 -101 152.68 -101 118 C-95.39 118 -89.78 118 -84 118 C-84 112.39 -84 106.78 -84 101 C-78.39 101 -72.78 101 -67 101 C-67 95.39 -67 89.78 -67 84 C-61.39 84 -55.78 84 -50 84 C-50.03957157 78.77936725 -50.03957157 78.77936725 -50.09008789 73.55883789 C-50.09723945 71.70566241 -50.0502852 69.85250692 -50 68 C-49 67 -49 67 -45.85717773 66.88647461 C-44.46597304 66.88672559 -43.07476209 66.89228291 -41.68359375 66.90234375 C-41.03588013 66.90335083 -40.3881665 66.90435791 -39.7208252 66.90539551 C-37.29303221 66.91064157 -34.86526439 66.92460275 -32.4375 66.9375 C-24.3009375 66.9684375 -24.3009375 66.9684375 -16 67 C-16 50.17 -16 33.34 -16 16 C-10.72 16 -5.44 16 0 16 C0 10.72 0 5.44 0 0 Z " fill="#8E7FB4" transform="translate(134,138)"/>
<path d="M0 0 C22.11 0 44.22 0 67 0 C67 5.28 67 10.56 67 16 C44.89 16 22.78 16 0 16 C0 10.72 0 5.44 0 0 Z " fill="#D4F379" transform="translate(68,375)"/>
<path d="M0 0 C5.28 0 10.56 0 16 0 C16 5.28 16 10.56 16 16 C21.61 16 27.22 16 33 16 C33 26.89 33 37.78 33 49 C27.72 49 22.44 49 17 49 C17 43.39 17 37.78 17 32 C11.39 32 5.78 32 0 32 C0 21.44 0 10.88 0 0 Z " fill="#D4F279" transform="translate(186,274)"/>
<path d="M0 0 C0.33 0 0.66 0 1 0 C1 5.28 1 10.56 1 16 C23.44 16 45.88 16 69 16 C69 21.61 69 27.22 69 33 C74.28 33 79.56 33 85 33 C85 33.33 85 33.66 85 34 C79.39 34 73.78 34 68 34 C68 28.39 68 22.78 68 17 C45.89 17 23.78 17 1 17 C1 22.61 1 28.22 1 34 C-15.335 34.495 -15.335 34.495 -32 35 C-32.33 39.95 -32.66 44.9 -33 50 C-38.61 50 -44.22 50 -50 50 C-50 44.39 -50 38.78 -50 33 C-44.72 33 -39.44 33 -34 33 C-34 27.39 -34 21.78 -34 16 C-22.78 16 -11.56 16 0 16 C0 10.72 0 5.44 0 0 Z " fill="#9082B2" transform="translate(185,104)"/>
<path d="M0 0 C5.28 0 10.56 0 16 0 C16 16.5 16 33 16 50 C10.72 50 5.44 50 0 50 C0 33.5 0 17 0 0 Z " fill="#D3F17A" transform="translate(68,274)"/>
<path d="M0 0 C16.5 0 33 0 50 0 C50 5.28 50 10.56 50 16 C33.5 16 17 16 0 16 C0 10.72 0 5.44 0 0 Z " fill="#4406F1" transform="translate(135,206)"/>
<path d="M0 0 C16.5 0 33 0 50 0 C50 4.95 50 9.9 50 15 C33.5 15 17 15 0 15 C0 10.05 0 5.1 0 0 Z " fill="#D3F279" transform="translate(135,223)"/>
<path d="M0 0 C0.33 0 0.66 0 1 0 C1 16.83 1 33.66 1 51 C-4.61 51 -10.22 51 -16 51 C-16 56.94 -16 62.88 -16 69 C-21.28 69 -26.56 69 -32 69 C-32 74.61 -32 80.22 -32 86 C-54.77 86 -77.54 86 -101 86 C-101 80.06 -101 74.12 -101 68 C-106.54973121 68.03957481 -106.54973121 68.03957481 -112.09936523 68.09008789 C-114.06645974 68.09723091 -116.03353621 68.05031893 -118 68 C-119 67 -119 67 -119.09765625 63.62109375 C-119.09191424 62.22652508 -119.07890228 60.83198403 -119.0625 59.4375 C-119.0315625 55.7559375 -119.0315625 55.7559375 -119 52 C-123.95 52 -128.9 52 -134 52 C-134 51.67 -134 51.34 -134 51 C-128.39 51 -122.78 51 -117 51 C-117 56.28 -117 61.56 -117 67 C-111.39 67 -105.78 67 -100 67 C-100 72.61 -100 78.22 -100 84 C-77.89 84 -55.78 84 -33 84 C-33 78.72 -33 73.44 -33 68 C-49.83 68 -66.66 68 -84 68 C-84 62.39 -84 56.78 -84 51 C-83.67 51 -83.34 51 -83 51 C-83 56.28 -83 61.56 -83 67 C-66.5 67 -50 67 -33 67 C-33 61.39 -33 55.78 -33 50 C-22.11 50 -11.22 50 0 50 C0 33.5 0 17 0 0 Z " fill="#7F66C0" transform="translate(472,307)"/>
<path d="M0 0 C5.61 0 11.22 0 17 0 C17 5.94 17 11.88 17 18 C11.72 18 6.44 18 1 18 C1 23.28 1 28.56 1 34 C-4.61 34 -10.22 34 -16 34 C-16 28.39 -16 22.78 -16 17 C-10.72 17 -5.44 17 0 17 C0 11.39 0 5.78 0 0 Z " fill="#D2EF7B" transform="translate(101,239)"/>
<path d="M0 0 C5.61 0 11.22 0 17 0 C17 11.22 17 22.44 17 34 C11.39 34 5.78 34 0 34 C0 22.78 0 11.56 0 0 Z " fill="#CFEA7E" transform="translate(270,307)"/>
<path d="M0 0 C10.89 0 21.78 0 33 0 C33 5.61 33 11.22 33 17 C22.11 17 11.22 17 0 17 C0 11.39 0 5.78 0 0 Z " fill="#470BEF" transform="translate(136,341)"/>
<path d="M0 0 C10.89 0 21.78 0 33 0 C33 5.28 33 10.56 33 16 C22.11 16 11.22 16 0 16 C0 10.72 0 5.44 0 0 Z " fill="#D4F279" transform="translate(136,358)"/>
<path d="M0 0 C5.28 0 10.56 0 16 0 C16 10.89 16 21.78 16 33 C10.72 33 5.44 33 0 33 C0 22.11 0 11.22 0 0 Z " fill="#D4F379" transform="translate(254,172)"/>
<path d="M0 0 C5.28 0 10.56 0 16 0 C16 10.89 16 21.78 16 33 C10.72 33 5.44 33 0 33 C0 22.11 0 11.22 0 0 Z " fill="#D3F17A" transform="translate(203,172)"/>
<path d="M0 0 C10.89 0 21.78 0 33 0 C33 4.95 33 9.9 33 15 C22.11 15 11.22 15 0 15 C0 10.05 0 5.1 0 0 Z " fill="#D3F17A" transform="translate(102,342)"/>
<path d="M0 0 C10.56 0 21.12 0 32 0 C32 4.95 32 9.9 32 15 C21.44 15 10.88 15 0 15 C0 10.05 0 5.1 0 0 Z " fill="#D4F379" transform="translate(136,325)"/>
<path d="M0 0 C10.56 0 21.12 0 32 0 C32 4.95 32 9.9 32 15 C21.44 15 10.88 15 0 15 C0 10.05 0 5.1 0 0 Z " fill="#D5F479" transform="translate(153,122)"/>
<path d="M0 0 C0.33 0 0.66 0 1 0 C1 5.28 1 10.56 1 16 C17.5 16 34 16 51 16 C51 16.33 51 16.66 51 17 C34.5 17 18 17 1 17 C1 22.94 1 28.88 1 35 C-4.94 35 -10.88 35 -17 35 C-17 28.73 -17 22.46 -17 16 C-11.39 16 -5.78 16 0 16 C0 10.72 0 5.44 0 0 Z " fill="#D1EE7B" transform="translate(405,290)"/>
<path d="M0 0 C0.33 0 0.66 0 1 0 C1 22.44 1 44.88 1 68 C-4.61 68 -10.22 68 -16 68 C-16 79.22 -16 90.44 -16 102 C-21.61 102 -27.22 102 -33 102 C-33 118.5 -33 135 -33 152 C-33.33 152 -33.66 152 -34 152 C-34 135.5 -34 119 -34 102 C-39.61 102 -45.22 102 -51 102 C-51 96.06 -51 90.12 -51 84 C-50.67 84 -50.34 84 -50 84 C-50 89.61 -50 95.22 -50 101 C-44.72 101 -39.44 101 -34 101 C-34.01160156 98.62941406 -34.02320313 96.25882812 -34.03515625 93.81640625 C-34.04294696 91.52954238 -34.04902364 89.24267996 -34.05493164 86.95581055 C-34.05997157 85.36205386 -34.0668035 83.76830181 -34.07543945 82.17456055 C-34.08751999 79.88849747 -34.09323155 77.60249533 -34.09765625 75.31640625 C-34.10281754 74.59973282 -34.10797882 73.88305939 -34.11329651 73.14466858 C-34.11349263 71.42936328 -34.06192007 69.71418734 -34 68 C-33 67 -33 67 -29.40234375 66.90234375 C-27.91403133 66.9090178 -26.42573568 66.92097817 -24.9375 66.9375 C-24.17888672 66.94201172 -23.42027344 66.94652344 -22.63867188 66.95117188 C-20.75908129 66.9629932 -18.87953101 66.98092922 -17 67 C-17.00523682 66.00556885 -17.01047363 65.0111377 -17.01586914 63.98657227 C-17.03392041 60.30966079 -17.04543246 56.63275325 -17.05493164 52.95581055 C-17.05997157 51.36205386 -17.0668035 49.76830181 -17.07543945 48.17456055 C-17.08751999 45.88849747 -17.09323155 43.60249533 -17.09765625 41.31640625 C-17.10281754 40.59973282 -17.10797882 39.88305939 -17.11329651 39.14466858 C-17.11349263 37.42936328 -17.06192007 35.71418734 -17 34 C-16.67 33.67 -16.34 33.34 -16 33 C-10.72 33 -5.44 33 0 33 C0 22.11 0 11.22 0 0 Z M-16 34 C-16 44.89 -16 55.78 -16 67 C-10.72 67 -5.44 67 0 67 C0 56.11 0 45.22 0 34 C-5.28 34 -10.56 34 -16 34 Z M-33 68 C-33 78.89 -33 89.78 -33 101 C-27.72 101 -22.44 101 -17 101 C-17 90.11 -17 79.22 -17 68 C-22.28 68 -27.56 68 -33 68 Z " fill="#8B7BB6" transform="translate(270,138)"/>
<path d="M0 0 C5.61 0 11.22 0 17 0 C17 5.61 17 11.22 17 17 C11.39 17 5.78 17 0 17 C0 11.39 0 5.78 0 0 Z " fill="#CEE87E" transform="translate(186,324)"/>
<path d="M0 0 C5.61 0 11.22 0 17 0 C17 5.61 17 11.22 17 17 C11.39 17 5.78 17 0 17 C0 11.39 0 5.78 0 0 Z " fill="#4A0FEC" transform="translate(169,324)"/>
<path d="M0 0 C5.61 0 11.22 0 17 0 C17 5.61 17 11.22 17 17 C11.39 17 5.78 17 0 17 C0 11.39 0 5.78 0 0 Z " fill="#CEE87E" transform="translate(169,307)"/>
<path d="M0 0 C0.33 0 0.66 0 1 0 C1 5.28 1 10.56 1 16 C6.28 16 11.56 16 17 16 C17 16.33 17 16.66 17 17 C11.72 17 6.44 17 1 17 C1 33.17 1 49.34 1 66 C6.61 66 12.22 66 18 66 C19 67 19 67 19.09765625 70.59765625 C19.09191272 72.08597255 19.07889891 73.57426296 19.0625 75.0625 C19.041875 77.681875 19.02125 80.30125 19 83 C29.23 83 39.46 83 50 83 C50 77.72 50 72.44 50 67 C50.33 67 50.66 67 51 67 C51 72.61 51 78.22 51 84 C40.11 84 29.22 84 18 84 C18 78.72 18 73.44 18 68 C12.39 68 6.78 68 1 68 C1 73.28 1 78.56 1 84 C0.67 84 0.34 84 0 84 C0 78.72 0 73.44 0 68 C-5.22063275 68.03957157 -5.22063275 68.03957157 -10.44116211 68.09008789 C-12.29433759 68.09723945 -14.14749308 68.0502852 -16 68 C-17 67 -17 67 -17.12025452 64.94358826 C-17.11803391 64.03979935 -17.11581329 63.13601044 -17.11352539 62.20483398 C-17.11344986 61.18385117 -17.11337433 60.16286835 -17.11329651 59.11094666 C-17.10813522 58.0005452 -17.10297394 56.89014374 -17.09765625 55.74609375 C-17.0962413 54.61551041 -17.09482635 53.48492706 -17.09336853 52.32008362 C-17.08775019 48.69252935 -17.07519458 45.06503576 -17.0625 41.4375 C-17.05748736 38.98502693 -17.05292405 36.5325529 -17.04882812 34.08007812 C-17.0377748 28.05336187 -17.02049788 22.02669124 -17 16 C-11.39 16 -5.78 16 0 16 C0 10.72 0 5.44 0 0 Z M-16 17 C-16 33.5 -16 50 -16 67 C-10.72 67 -5.44 67 0 67 C0 50.5 0 34 0 17 C-5.28 17 -10.56 17 -16 17 Z " fill="#7B5FC4" transform="translate(84,257)"/>
<path d="M0 0 C5.61 0 11.22 0 17 0 C17 5.28 17 10.56 17 16 C11.39 16 5.78 16 0 16 C0 10.72 0 5.44 0 0 Z " fill="#D0ED7C" transform="translate(186,206)"/>
<path d="M0 0 C5.28 0 10.56 0 16 0 C16 5.28 16 10.56 16 16 C10.72 16 5.44 16 0 16 C0 10.72 0 5.44 0 0 Z " fill="#D3F17A" transform="translate(440,358)"/>
<path d="M0 0 C5.28 0 10.56 0 16 0 C16 5.28 16 10.56 16 16 C10.72 16 5.44 16 0 16 C0 10.72 0 5.44 0 0 Z " fill="#D2F07A" transform="translate(51,358)"/>
<path d="M0 0 C5.28 0 10.56 0 16 0 C16 5.28 16 10.56 16 16 C10.72 16 5.44 16 0 16 C0 10.72 0 5.44 0 0 Z " fill="#4406F1" transform="translate(203,274)"/>
<path d="M0 0 C5.28 0 10.56 0 16 0 C16 5.28 16 10.56 16 16 C10.72 16 5.44 16 0 16 C0 10.72 0 5.44 0 0 Z " fill="#D4F379" transform="translate(85,257)"/>
<path d="M0 0 C5.28 0 10.56 0 16 0 C16 5.28 16 10.56 16 16 C10.72 16 5.44 16 0 16 C0 10.72 0 5.44 0 0 Z " fill="#D1EE7B" transform="translate(51,240)"/>
<path d="M0 0 C5.28 0 10.56 0 16 0 C16 5.28 16 10.56 16 16 C10.72 16 5.44 16 0 16 C0 10.72 0 5.44 0 0 Z " fill="#D1EE7B" transform="translate(68,223)"/>
<path d="M0 0 C5.28 0 10.56 0 16 0 C16 5.28 16 10.56 16 16 C10.72 16 5.44 16 0 16 C0 10.72 0 5.44 0 0 Z " fill="#D1ED7C" transform="translate(338,206)"/>
<path d="M0 0 C5.28 0 10.56 0 16 0 C16 5.28 16 10.56 16 16 C10.72 16 5.44 16 0 16 C0 10.72 0 5.44 0 0 Z " fill="#D4F379" transform="translate(355,189)"/>
<path d="M0 0 C5.28 0 10.56 0 16 0 C16 5.28 16 10.56 16 16 C10.72 16 5.44 16 0 16 C0 10.72 0 5.44 0 0 Z " fill="#4304F2" transform="translate(389,172)"/>
<path d="M0 0 C5.28 0 10.56 0 16 0 C16 5.28 16 10.56 16 16 C10.72 16 5.44 16 0 16 C0 10.72 0 5.44 0 0 Z " fill="#D4F379" transform="translate(372,172)"/>
<path d="M0 0 C5.28 0 10.56 0 16 0 C16 4.95 16 9.9 16 15 C10.72 15 5.44 15 0 15 C0 10.05 0 5.1 0 0 Z " fill="#D2F07A" transform="translate(170,342)"/>
<path d="M0 0 C5.28 0 10.56 0 16 0 C16 4.95 16 9.9 16 15 C10.72 15 5.44 15 0 15 C0 10.05 0 5.1 0 0 Z " fill="#D4F379" transform="translate(85,325)"/>
<path d="M0 0 C5.28 0 10.56 0 16 0 C16 4.95 16 9.9 16 15 C10.72 15 5.44 15 0 15 C0 10.05 0 5.1 0 0 Z " fill="#4101F4" transform="translate(186,308)"/>
<path d="M0 0 C5.28 0 10.56 0 16 0 C16 4.95 16 9.9 16 15 C10.72 15 5.44 15 0 15 C0 10.05 0 5.1 0 0 Z " fill="#D2F07A" transform="translate(135,139)"/>
<path d="M0 0 C5.61 0 11.22 0 17 0 C17 0.33 17 0.66 17 1 C12.05 1 7.1 1 2 1 C2 22.45 2 43.9 2 66 C6.95 66 11.9 66 17 66 C17 66.66 17 67.32 17 68 C11.39 68 5.78 68 0 68 C0 45.56 0 23.12 0 0 Z " fill="#6840D3" transform="translate(371,290)"/>
<path d="M0 0 C5.61 0 11.22 0 17 0 C17 16.83 17 33.66 17 51 C22.28 51 27.56 51 33 51 C33 51.33 33 51.66 33 52 C27.72 52 22.44 52 17 52 C17 57.28 17 62.56 17 68 C16.67 68 16.34 68 16 68 C16 62.72 16 57.44 16 52 C10.72 52 5.44 52 0 52 C0 62.89 0 73.78 0 85 C-5.61 85 -11.22 85 -17 85 C-17 84.67 -17 84.34 -17 84 C-11.72 84 -6.44 84 -1 84 C-1 73.11 -1 62.22 -1 51 C4.61 51 10.22 51 16 51 C16 34.5 16 18 16 1 C10.72 1 5.44 1 0 1 C0 0.67 0 0.34 0 0 Z " fill="#7C62C3" transform="translate(186,222)"/>
<path d="M0 0 C0.33 0 0.66 0 1 0 C1 16.5 1 33 1 50 C6.61 50 12.22 50 18 50 C18 61.22 18 72.44 18 84 C12.39 84 6.78 84 1 84 C1 83.67 1 83.34 1 83 C5.95 83 10.9 83 16 83 C16 72.77 16 62.54 16 52 C10.72 52 5.44 52 0 52 C0 34.84 0 17.68 0 0 Z " fill="#B5BF93" transform="translate(320,172)"/>
<path d="M0 0 C0.33 0 0.66 0 1 0 C1 5.28 1 10.56 1 16 C17.5 16 34 16 51 16 C51 16.33 51 16.66 51 17 C34.5 17 18 17 1 17 C1 22.94 1 28.88 1 35 C-4.94 35 -10.88 35 -17 35 C-17 28.73 -17 22.46 -17 16 C-11.39 16 -5.78 16 0 16 C0 10.72 0 5.44 0 0 Z M-16 17 C-16 22.28 -16 27.56 -16 33 C-10.72 33 -5.44 33 0 33 C0 27.72 0 22.44 0 17 C-5.28 17 -10.56 17 -16 17 Z " fill="#968CAD" transform="translate(405,290)"/>
<path d="M0 0 C5.61 0 11.22 0 17 0 C17 0.66 17 1.32 17 2 C12.05 2 7.1 2 2 2 C2 12.89 2 23.78 2 35 C-3.94 35 -9.88 35 -16 35 C-16 45.89 -16 56.78 -16 68 C-16.33 68 -16.66 68 -17 68 C-17 56.78 -17 45.56 -17 34 C-11.39 34 -5.78 34 0 34 C0 22.78 0 11.56 0 0 Z " fill="#6C48D0" transform="translate(405,222)"/>
<path d="M0 0 C0.33 0 0.66 0 1 0 C1 5.28 1 10.56 1 16 C6.28 16 11.56 16 17 16 C17 16.33 17 16.66 17 17 C11.72 17 6.44 17 1 17 C1.03957157 22.22063275 1.03957157 22.22063275 1.09008789 27.44116211 C1.09723945 29.29433759 1.0502852 31.14749308 1 33 C0 34 0 34 -3.59765625 34.09765625 C-5.08597255 34.09191272 -6.57426296 34.07889891 -8.0625 34.0625 C-10.681875 34.041875 -13.30125 34.02125 -16 34 C-16 39.28 -16 44.56 -16 50 C-16.33 50 -16.66 50 -17 50 C-17 44.72 -17 39.44 -17 34 C-22.28 34 -27.56 34 -33 34 C-33 39.28 -33 44.56 -33 50 C-33.33 50 -33.66 50 -34 50 C-34 44.39 -34 38.78 -34 33 C-28.39 33 -22.78 33 -17 33 C-17 27.39 -17 21.78 -17 16 C-11.39 16 -5.78 16 0 16 C0 10.72 0 5.44 0 0 Z M-16 17 C-16 22.28 -16 27.56 -16 33 C-10.72 33 -5.44 33 0 33 C0 27.72 0 22.44 0 17 C-5.28 17 -10.56 17 -16 17 Z " fill="#9286B0" transform="translate(371,172)"/>
<path d="M0 0 C11.22 0 22.44 0 34 0 C34 5.61 34 11.22 34 17 C17.665 17.495 17.665 17.495 1 18 C0.67 22.95 0.34 27.9 0 33 C-0.33 33 -0.66 33 -1 33 C-1 28.05 -1 23.1 -1 18 C-6.28 18 -11.56 18 -17 18 C-17 17.34 -17 16.68 -17 16 C-11.39 16 -5.78 16 0 16 C0 10.72 0 5.44 0 0 Z M1 1 C1 5.95 1 10.9 1 16 C11.56 16 22.12 16 33 16 C33 11.05 33 6.1 33 1 C22.44 1 11.88 1 1 1 Z " fill="#A8AB9E" transform="translate(152,121)"/>
<path d="M0 0 C0.33 0 0.66 0 1 0 C1 10.89 1 21.78 1 33 C6.28 33 11.56 33 17 33 C17 33.33 17 33.66 17 34 C11.72 34 6.44 34 1 34 C1 50.5 1 67 1 84 C0.67 84 0.34 84 0 84 C0 67.5 0 51 0 34 C-5.61 34 -11.22 34 -17 34 C-17 28.06 -17 22.12 -17 16 C-16.67 16 -16.34 16 -16 16 C-16 21.61 -16 27.22 -16 33 C-10.72 33 -5.44 33 0 33 C0 22.11 0 11.22 0 0 Z " fill="#9184B2" transform="translate(236,206)"/>
<path d="M0 0 C5.61 0 11.22 0 17 0 C17 0.33 17 0.66 17 1 C11.72 1 6.44 1 1 1 C1 6.28 1 11.56 1 17 C6.28 17 11.56 17 17 17 C17 17.33 17 17.66 17 18 C11.72 18 6.44 18 1 18 C1 23.28 1 28.56 1 34 C0.67 34 0.34 34 0 34 C0 28.72 0 23.44 0 18 C-5.28 18 -10.56 18 -16 18 C-16 17.67 -16 17.34 -16 17 C-10.72 17 -5.44 17 0 17 C0 11.39 0 5.78 0 0 Z " fill="#9185B1" transform="translate(101,239)"/>
<path d="M0 0 C5.61 0 11.22 0 17 0 C18.51322577 3.02645155 18.00453618 6.10771861 17.87890625 9.4140625 C17.85529526 10.14370209 17.83168427 10.87334167 17.80735779 11.62509155 C17.73070246 13.95859139 17.64668657 16.29176089 17.5625 18.625 C17.50928115 20.20571293 17.45654074 21.78644205 17.40429688 23.3671875 C17.27508487 27.24500138 17.13927041 31.12253486 17 35 C16.67 35 16.34 35 16 35 C16 24.11 16 13.22 16 2 C10.72 2 5.44 2 0 2 C0 1.34 0 0.68 0 0 Z " fill="#785CC6" transform="translate(203,170)"/>
<path d="M0 0 C0.33 0 0.66 0 1 0 C1 5.28 1 10.56 1 16 C6.28 16 11.56 16 17 16 C17 16.33 17 16.66 17 17 C11.72 17 6.44 17 1 17 C1 22.28 1 27.56 1 33 C0.67 33 0.34 33 0 33 C0 27.72 0 22.44 0 17 C-5.28 17 -10.56 17 -16 17 C-16 16.67 -16 16.34 -16 16 C-10.72 16 -5.44 16 0 16 C0 10.72 0 5.44 0 0 Z " fill="#9082B2" transform="translate(84,308)"/>
</svg>
